<?xml version="1.0" encoding="UTF-8" standalone="no"?>
<!-- Created with Inkscape (http://www.inkscape.org/) -->

<svg
   width="300mm"
   height="300mm"
   viewBox="0 0 300 300"
   version="1.1"
   id="svg5"
   inkscape:version="1.1.2 (b8e25be833, 2022-02-05)"
   sodipodi:docname="justajelly-icon.svg"
   inkscape:export-filename="C:\Users\Andrew\Downloads\JustAJelly5.png"
   inkscape:export-xdpi="96"
   inkscape:export-ydpi="96"
   xmlns:inkscape="http://www.inkscape.org/namespaces/inkscape"
   xmlns:sodipodi="http://sodipodi.sourceforge.net/DTD/sodipodi-0.dtd"
   xmlns="http://www.w3.org/2000/svg"
   xmlns:svg="http://www.w3.org/2000/svg">
  <sodipodi:namedview
     id="namedview7"
     pagecolor="#505050"
     bordercolor="#eeeeee"
     borderopacity="1"
     inkscape:pageshadow="0"
     inkscape:pageopacity="0"
     inkscape:pagecheckerboard="0"
     inkscape:document-units="mm"
     showgrid="false"
     inkscape:zoom="1.4142136"
     inkscape:cx="140.71425"
     inkscape:cy="444.06306"
     inkscape:window-width="3840"
     inkscape:window-height="2066"
     inkscape:window-x="-11"
     inkscape:window-y="-11"
     inkscape:window-maximized="1"
     inkscape:current-layer="layer1" />
  <defs
     id="defs2">
    <inkscape:path-effect
       effect="powerstroke"
       id="path-effect9781"
       is_visible="true"
       lpeversion="1"
       offset_points="0.03137386,0.38725353 | 0.67070525,0.5577668 | 0.94328929,0.75532619 | 1.6208939,1.9844844 | 2.2242247,2.2238053 | 2.7779197,1.3280725 | 3.3017992,0.55322247 | 4.0041015,0.67344088 | 4.8959115,1.2084987 | 6.980019,0.21639444 | 6.7107754,0.71525715 | 5.8768983,2.1666483"
       not_jump="false"
       sort_points="true"
       interpolator_type="CentripetalCatmullRom"
       interpolator_beta="0.2"
       start_linecap_type="zerowidth"
       linejoin_type="round"
       miter_limit="4"
       scale_width="1"
       end_linecap_type="zerowidth" />
    <inkscape:path-effect
       effect="powerstroke"
       id="path-effect8089"
       is_visible="true"
       lpeversion="1"
       offset_points="2.2016578,1.6150912 | 1.4847894,1.4864409 | 2.7783223,0.69479756 | 3.9614431,0.50688062 | 5.7496666,0.85352699 | 5.4221042,0.63684978 | 9.7771763,0.90189414"
       not_jump="false"
       sort_points="true"
       interpolator_type="CentripetalCatmullRom"
       interpolator_beta="0.2"
       start_linecap_type="zerowidth"
       linejoin_type="round"
       miter_limit="4"
       scale_width="1"
       end_linecap_type="zerowidth" />
    <inkscape:path-effect
       effect="powerstroke"
       id="path-effect8007"
       is_visible="true"
       lpeversion="1"
       offset_points="0.38810921,0.76776395 | 4.5,0.5 | 8.8,0.5"
       not_jump="false"
       sort_points="true"
       interpolator_type="CentripetalCatmullRom"
       interpolator_beta="0.2"
       start_linecap_type="zerowidth"
       linejoin_type="round"
       miter_limit="4"
       scale_width="1"
       end_linecap_type="zerowidth" />
  </defs>
  <g
     inkscape:label="Layer 1"
     id="layer1"
     inkscape:groupmode="layer">
    <circle
       style="fill:#0d0029;fill-opacity:1;stroke:#3120e0;stroke-width:3.973;stroke-linecap:round;stroke-miterlimit:4;stroke-dasharray:none;stroke-opacity:1"
       id="path12291"
       cx="150"
       cy="150"
       r="148.01329" />
    <g
       id="g4000"
       inkscape:label="Jellyfish2"
       transform="matrix(2.4291258,0,0,2.4633018,-58.786385,-339.82042)"
       inkscape:export-filename="C:\Users\Andrew\Downloads\JustAJelly3.png"
       inkscape:export-xdpi="96"
       inkscape:export-ydpi="96">
      <path
         style="fill:#3120e0;fill-opacity:1;stroke:none;stroke-width:0.264583px;stroke-linecap:butt;stroke-linejoin:miter;stroke-opacity:1"
         d="m 41.241927,186.1013 c -3.674032,7.03996 -0.636887,17.85782 5.192447,23.25026 2.288968,2.11742 6.426816,2.62428 9.260417,1.32292 0.689227,-0.31653 0.612282,-1.46946 1.223698,-1.91823 0.819222,-0.6013 2.255553,-0.0458 2.943489,-0.79375 0.750953,-0.81647 -0.114607,-2.42184 0.595313,-3.27422 0.558211,-0.67023 1.938269,-0.2178 2.447396,-0.92604 0.515152,-0.71662 -0.387132,-1.90937 0.09922,-2.64584 0.83973,-1.27158 3.431239,-0.59926 4.134115,-1.9513 0.717278,-1.37974 -1.427624,-3.17713 -0.79375,-4.59713 0.312954,-0.70108 1.590006,-0.54627 1.951302,-1.2237 0.337373,-0.63258 -0.415962,-1.52396 -0.06615,-2.14974 0.465043,-0.83192 1.983505,-0.60889 2.480469,-1.42214 0.736605,-1.20541 0.745712,-2.93099 0.198437,-4.23333 -0.211744,-0.50388 -1.022287,-0.58331 -1.223697,-1.09141 -0.371109,-0.93621 0.620725,-2.06763 0.264583,-3.00963 -0.328156,-0.86798 -1.374759,-1.24888 -2.017448,-1.91823 -0.984757,-1.02561 -1.427156,-2.88243 -2.811198,-3.20807 -8.373829,-1.97023 -19.898564,2.16319 -23.878643,9.78958 z"
         id="path2477"
         sodipodi:nodetypes="aaaaaaaaaaaaaaaaaaa"
         inkscape:label="Body" />
      <path
         style="fill:none;stroke:#3120e0;stroke-width:1;stroke-linecap:round;stroke-linejoin:miter;stroke-miterlimit:4;stroke-dasharray:none;stroke-opacity:1"
         d="m 69.159089,183.24673 c 5.446151,0.89543 4.502784,6.80867 8.05892,8.42055 5.72823,2.59643 12.590392,1.07104 18.891886,0.88328 7.270845,-0.21664 15.208405,-5.55984 21.695835,-2.3151 6.40342,3.20272 10.5037,9.88916 10.78177,18.38854"
         id="path10740"
         inkscape:label="Line1"
         sodipodi:nodetypes="caaac" />
      <path
         style="fill:none;stroke:#3120e0;stroke-width:1;stroke-linecap:round;stroke-linejoin:miter;stroke-miterlimit:4;stroke-dasharray:none;stroke-opacity:1"
         d="m 67.012972,191.62516 c 0,0 5.758761,7.07012 9.125864,8.79173 8.180737,2.35026 16.422474,0.21197 24.072104,1.06331 3.24747,0.38884 6.58315,0.78246 9.59114,2.05052 2.64298,1.11419 5.12167,2.74803 7.14375,4.7625 1.60287,1.59684 2.10902,4.08471 3.77031,5.6224 2.39104,2.21316 5.47808,3.65251 8.53282,4.82864 2.44325,0.94069 6.87916,1.78594 7.67291,1.71979"
         id="path10742"
         inkscape:label="Line2"
         sodipodi:nodetypes="cccaaaac" />
      <path
         style="fill:none;stroke:#3120e0;stroke-width:1;stroke-linecap:round;stroke-linejoin:miter;stroke-miterlimit:4;stroke-dasharray:none;stroke-opacity:1"
         d="m 58.472916,206.44114 c 13.296623,5.91564 30.742381,-1.2407 43.417934,2.89214 5.36484,1.74919 5.18637,8.47359 10.82165,8.88191 4.79571,0.34748 8.51531,-4.60432 13.16302,-5.82084 2.89063,-0.75661 8.92969,-0.85989 8.92969,-0.85989"
         id="path10746"
         inkscape:label="Line3"
         sodipodi:nodetypes="csssc" />
      <path
         style="fill:none;stroke:#3120e0;stroke-width:1;stroke-linecap:round;stroke-linejoin:miter;stroke-miterlimit:4;stroke-dasharray:none;stroke-opacity:1"
         d="m 54.239583,209.81458 c 0,0 2.24484,2.17005 3.571875,2.97656 3.591292,2.18263 7.574948,3.78872 11.641666,4.89479 1.758962,0.4784 3.607141,0.56119 5.423958,0.7276 3.561022,0.32618 7.143079,0.36653 10.715625,0.52917 3.174452,0.14452 6.347875,0.33072 9.525,0.39688 1.741453,0.0363 3.487845,-0.11868 5.225523,0 2.26521,0.15471 4.56723,0.2985 6.74687,0.92604 3.3993,0.97869 6.66432,2.49917 9.65729,4.36562 1.97014,1.2286 4.29948,3.50573 5.35782,4.43177"
         id="path10748"
         inkscape:label="Line4"
         sodipodi:nodetypes="caaaaaaaac" />
      <path
         style="display:inline;fill:none;stroke:#3120e0;stroke-width:1;stroke-linecap:round;stroke-linejoin:miter;stroke-miterlimit:4;stroke-dasharray:none;stroke-opacity:1"
         d="m 64.28423,199.48699 c 5.057341,7.03899 -3.105395,11.94153 -1.776418,17.73592 0.894439,3.89978 2.733475,8.34463 6.288286,10.2676 5.084248,2.75032 11.596421,-0.60988 17.391922,-0.41187 5.997663,0.20492 12.305554,-0.42218 17.92552,1.65364 3.58608,1.32457 8.46667,5.82084 9.32656,6.61459"
         id="path10750"
         inkscape:label="Line5"
         sodipodi:nodetypes="caaaac" />
    </g>
    <g
       id="g2442"
       inkscape:label="Jellyfish1"
       transform="matrix(2.4291258,0,0,2.4633018,-194.07604,-58.916815)"
       inkscape:export-filename="C:\Users\Andrew\Downloads\JustAJelly3.png"
       inkscape:export-xdpi="96"
       inkscape:export-ydpi="96">
      <path
         style="display:inline;opacity:1;fill:#f15412;fill-opacity:1;fill-rule:nonzero;stroke:none;stroke-width:0.15;stroke-linecap:butt;stroke-linejoin:miter;stroke-miterlimit:4;stroke-dasharray:none;stroke-opacity:1"
         d="m 146.34766,64.177994 v 0 c -0.0636,0.0246 -0.10828,0.103114 -0.18577,0.350661 -0.0504,0.160869 -0.12096,0.40729 -0.23976,0.650538 -0.11068,0.226636 -0.25737,0.44186 -0.46918,0.636201 -0.20115,0.184555 -0.46781,0.356432 -0.83018,0.508539 -0.14795,0.05116 -0.32996,0.12412 -0.52512,0.207986 -0.20577,0.08842 -0.4302,0.19068 -0.65668,0.297994 -0.48992,0.232134 -0.98921,0.487364 -1.39925,0.713135 5.6e-4,-3.1e-4 -0.0923,0.05087 -0.0917,0.05056 -0.53669,0.29625 -1.02542,0.572757 -1.41562,0.812201 -0.21525,0.132085 -0.41091,0.259149 -0.57982,0.380879 -0.0878,0.06325 -0.17213,0.12778 -0.25143,0.194027 -0.0792,0.06615 -0.16182,0.141059 -0.24238,0.225995 -0.30287,0.316801 -0.56332,0.691391 -0.78643,1.083183 -0.13861,0.243392 -0.26906,0.504452 -0.39103,0.779687 -0.0783,0.176618 -0.14998,0.35633 -0.21576,0.537513 -0.36282,0.999357 -0.5684,2.108283 -0.70403,3.227156 -0.1208,0.996552 -0.21554,2.276238 -0.24703,3.494852 -0.003,0.127947 -0.006,0.257568 -0.008,0.3882 -0.0133,0.931856 0.0316,1.932981 0.21716,2.866952 a 0.01221321,1.1767184e-4 79.116296 0 0 0.003,0.01668 c 2.31327,11.125544 4.91506,24.26395 7.38204,35.76035 -0.003,-0.013 0.29347,1.36544 0.29068,1.35248 0.21083,0.97235 0.26488,1.88644 0.15538,2.72524 -0.10182,0.77992 -0.34156,1.46758 -0.69563,2.0608 -0.35029,0.58686 -0.8064,1.07104 -1.33176,1.45653 -0.5502,0.40371 -1.1644,0.69054 -1.79129,0.8774 -0.49476,0.14389 -0.99893,0.1632 -1.459,0.11368 -0.39661,-0.0427 -0.75539,-0.13572 -1.05159,-0.24006 -0.18616,-0.0656 -0.33948,-0.13491 -0.46231,-0.19782 -0.27953,-0.14315 -0.8274,-0.51544 -1.32363,-0.91839 -0.30049,-0.24418 -0.6987,-0.61304 -1.04338,-1.11139 -0.17857,-0.26776 -0.30666,-0.61675 -0.32754,-1.03735 -0.0177,-0.35742 0.0443,-0.75432 0.20861,-1.13299 0.14833,-0.34185 0.3704,-0.64506 0.65277,-0.86406 0.25818,-0.20023 0.57225,-0.33499 0.9513,-0.36522 -0.059,0.0162 -0.0919,0.0179 -0.0992,0.0248 -0.007,0.007 0.008,0.0183 0.0369,0.0416 0.0623,0.0506 0.15191,0.12802 0.24802,0.25912 0.0915,0.12485 0.17084,0.27524 0.22187,0.44543 0.0502,0.16746 0.073,0.35347 0.0546,0.55766 -0.0137,0.10944 -0.0496,0.21209 -0.0991,0.30198 -0.0521,0.0946 -0.11357,0.16476 -0.16618,0.21057 -0.0561,0.0489 -0.0819,0.0527 -0.0554,0.0505 0.0151,-0.001 0.0457,-0.003 0.0876,0.003 0.0448,0.007 0.0937,0.0225 0.1383,0.0485 0.0776,0.0367 0.14537,0.0857 0.19936,0.14027 0.0541,0.0547 0.0859,0.10627 0.10208,0.14183 1.2e-4,2.6e-4 0.0383,0.15075 -0.0137,0.0174 -0.025,-0.0642 -0.0459,-0.17177 -0.0596,-0.30472 -0.0149,-0.14588 -0.02,-0.30734 -0.0217,-0.46481 -0.005,-0.46365 0.01,-0.74236 -0.0402,-0.98053 -0.007,-0.0338 -0.0153,-0.0647 -0.0247,-0.0928 -0.13011,-0.3919 -0.63203,-0.56476 -0.76471,-0.60711 -0.12614,-0.0403 -0.65458,-0.19284 -0.97979,0.14842 -0.0231,0.0243 -0.0466,0.0522 -0.0705,0.0842 -0.14005,0.18803 -0.32332,0.57069 -0.45844,1.13739 -0.05,0.20977 -0.0954,0.45673 -0.11907,0.71998 -0.0209,0.23312 -0.0275,0.50868 0.009,0.79401 0.0326,0.25709 0.10749,0.58368 0.28848,0.90262 0.0887,0.15626 0.2065,0.31703 0.36222,0.46451 0.15296,0.14487 0.33456,0.26926 0.54358,0.36177 0.24336,0.11038 0.50266,0.17477 0.76766,0.19307 0.25321,0.0175 0.50186,-0.008 0.73811,-0.0662 0.44808,-0.11103 0.85217,-0.3415 1.187,-0.63828 0.32144,-0.2849 0.59611,-0.64569 0.79488,-1.06031 0.19414,-0.40493 0.31964,-0.86961 0.33676,-1.36904 0.0214,-0.58231 -0.0824,-1.12426 -0.27151,-1.60432 -0.18805,-0.47738 -0.45809,-0.88816 -0.76706,-1.21998 -0.31101,-0.33402 -0.67416,-0.60172 -1.05905,-0.7783 -0.19709,-0.0904 -0.40825,-0.16076 -0.62818,-0.20057 -0.22339,-0.0404 -0.46626,-0.0511 -0.71471,-0.0111 -0.87342,0.1285 -1.5913,0.51178 -2.1368,1.01141 -0.57844,0.52979 -0.95779,1.18232 -1.17458,1.82485 -0.24136,0.71536 -0.2917,1.44161 -0.19863,2.09456 0.11116,0.77984 0.42188,1.44261 0.84458,1.95524 0.5351,0.64514 1.11474,1.08734 1.51382,1.35336 0.76152,0.50721 1.40212,0.6779 1.8451,0.80456 0.15548,0.0445 0.36713,0.10278 0.59502,0.15672 0.37237,0.0881 0.82271,0.16782 1.31975,0.18926 0.57566,0.0248 1.22373,-0.0284 1.87144,-0.2442 0.72287,-0.23816 1.43995,-0.59081 2.08851,-1.08417 0.62075,-0.47221 1.16382,-1.06235 1.5814,-1.77552 0.42236,-0.72135 0.70044,-1.54139 0.81782,-2.44811 0.12587,-0.97221 0.0619,-2.0027 -0.16393,-3.06691 -0.002,-0.009 -0.28626,-1.34347 -0.28812,-1.35218 -2.48892,-11.70937 -5.12386,-24.35235 -7.26642,-35.752088 -0.10728,-0.824799 -0.0688,-1.72094 0.0581,-2.571511 0.0177,-0.118354 0.0373,-0.235407 0.0588,-0.350944 0.21275,-1.14687 0.60304,-2.176733 1.00164,-3.036013 0.42013,-0.905668 0.93412,-1.796849 1.36399,-2.504909 0.0795,-0.130992 0.15817,-0.258844 0.23464,-0.381677 0.1198,-0.192458 0.23241,-0.361813 0.33672,-0.508097 0.17647,-0.247479 0.30998,-0.401983 0.40079,-0.492683 -0.007,0.0088 0.002,-0.0018 0.0314,-0.03082 0.0281,-0.02773 0.067,-0.06501 0.11916,-0.113314 0.1008,-0.0934 0.235,-0.213173 0.40264,-0.357998 0.31014,-0.267932 0.69747,-0.589653 1.17023,-0.970706 1.7e-4,-1.37e-4 0.079,-0.06356 0.0791,-0.06369 0.34058,-0.273786 0.79015,-0.647462 1.18805,-0.997382 0.18889,-0.166117 0.37407,-0.333798 0.54113,-0.493209 0.15971,-0.15239 0.30254,-0.296876 0.42073,-0.429429 0.53119,-0.466591 0.86488,-0.981274 1.04211,-1.488718 0.17857,-0.511287 0.1847,-0.973749 0.12789,-1.331303 -0.0632,-0.39783 -0.20538,-0.685517 -0.31997,-0.850339 -0.17038,-0.245063 -0.29669,-0.26555 -0.34538,-0.246714 z"
         id="path8085"
         sodipodi:nodetypes="csscsssssac"
         inkscape:path-effect="#path-effect8089"
         inkscape:original-d="m 146.34766,64.177994 c 0,0 0.69136,1.787167 -1.11477,3.031507 -1.04945,0.723025 -3.9672,2.558269 -4.55724,3.169664 -1.56003,1.616498 -3.41958,7.365871 -2.79471,11.112501 2.53754,12.821812 5.11612,25.462514 7.61504,37.116074 0.92004,4.2906 -1.18105,6.8617 -3.99355,7.74734 -2.10833,0.6639 -4.82297,-0.46292 -6.24252,-2.30684 -1.34326,-1.74482 -0.36835,-4.83442 2.07532,-5.14284 0.76822,-0.097 2.03145,0.99376 1.9513,2.57142 -0.0613,1.20694 -1.14807,2.12301 -1.95956,1.77767 -1.03766,-0.44159 -0.0992,-3.3817 -0.0992,-3.3817"
         inkscape:label="Clef1" />
      <path
         style="display:inline;opacity:1;fill:#f15412;fill-opacity:1;fill-rule:nonzero;stroke:none;stroke-width:0.15;stroke-linecap:butt;stroke-linejoin:miter;stroke-miterlimit:4;stroke-dasharray:none;stroke-opacity:1"
         d="m 140.4276,62.573958 c -0.0221,0.10773 -0.17201,0.305116 -0.13104,0.649216 0.11872,0.997375 1.93686,4.336874 2.96664,6.853972 0.37811,0.924192 0.63226,1.7018 0.77714,2.337687 0.093,0.408096 0.1618,0.772561 0.21185,1.094017 0.12195,0.78318 0.18834,1.648539 0.0682,2.691588 -0.0289,0.250866 -0.0718,0.517386 -0.13097,0.797696 -0.19865,0.796282 -0.56636,1.688277 -1.10689,2.644484 -0.49694,0.879097 -1.09283,1.731273 -1.74949,2.566055 -0.33122,0.42106 -0.66256,0.818562 -0.99129,1.203703 -1.08636,1.272778 -2.31897,2.431882 -3.60386,3.442968 -1.06868,0.84958 -2.17162,1.886107 -3.19577,3.075185 -0.11886,0.138007 -0.23637,0.278216 -0.35239,0.420516 -1.14118,1.399699 -2.1352,2.997367 -2.87248,4.699335 -0.75036,1.732186 -1.23206,3.564636 -1.34634,5.42338 -0.0128,0.2085 -0.021,0.41732 -0.0245,0.62639 -0.0283,1.70844 0.32242,3.36794 1.05493,4.95079 l -0.0118,-0.0332 c 0.57845,1.28579 1.39729,2.41599 2.36458,3.39341 0.19134,0.19334 0.39019,0.38242 0.59619,0.56692 0.75671,0.67778 1.60228,1.2816 2.52212,1.78551 1.10359,0.60457 2.31665,1.06655 3.58695,1.32255 1.21904,0.24567 2.49141,0.30115 3.73543,0.096 0.0197,-0.003 0.0395,-0.007 0.0592,-0.01 2.28239,-0.38971 4.36565,-1.53855 5.78066,-3.35628 0.68294,-0.87732 1.19849,-1.89947 1.48267,-3.02936 0.16511,-0.65641 0.25098,-1.34499 0.24735,-2.05588 -0.003,-0.50268 -0.0443,-1.02115 -0.13298,-1.5526 -0.12336,-0.89561 -0.36261,-1.83099 -0.73995,-2.73762 -0.37322,-0.896703 -0.88668,-1.776356 -1.55931,-2.540313 -0.6842,-0.777095 -1.54472,-1.441154 -2.55092,-1.842191 -0.52743,-0.210218 -1.08618,-0.345168 -1.66277,-0.389333 -0.55586,-0.04258 -1.13381,-5.16e-4 -1.71693,0.135801 -1.24031,0.238138 -2.32715,0.649254 -3.24555,1.214426 -0.92107,0.566821 -1.63665,1.266611 -2.15876,2.04041 -0.53389,0.79126 -0.84392,1.62688 -0.99302,2.43255 -0.1572,0.84942 -0.13635,1.66537 -0.0182,2.39355 0.13092,0.80696 0.38344,1.52432 0.67389,2.12386 0.23111,0.47703 0.48867,0.88558 0.74378,1.23026 0.12699,0.17158 0.25887,0.3352 0.39558,0.48989 0.47273,0.53489 0.97089,0.92601 1.46425,1.17481 0.6278,0.3166 1.15765,0.35375 1.42266,0.27834 0.15703,-0.0447 0.23339,-0.15883 0.27343,-0.19076 -0.039,-0.0381 -0.0949,-0.15315 -0.21216,-0.23767 -0.19237,-0.13869 -0.57018,-0.29768 -0.97625,-0.64216 -0.32223,-0.27336 -0.64828,-0.64678 -0.91801,-1.14215 -0.0779,-0.14311 -0.14931,-0.29326 -0.21283,-0.44934 -0.12777,-0.31394 -0.23545,-0.6781 -0.30395,-1.08181 -0.0866,-0.51068 -0.10852,-1.07453 -0.0323,-1.64656 0.069,-0.51806 0.21593,-1.02229 0.44937,-1.48077 0.21992,-0.43194 0.50961,-0.81018 0.87217,-1.13045 0.34972,-0.30892 0.78469,-0.57951 1.32789,-0.79607 0.54653,-0.21788 1.23008,-0.391821 2.0864,-0.480302 0.2311,0.0084 0.44213,0.03964 0.62918,0.07407 0.19429,0.03577 0.40019,0.08277 0.60798,0.144912 0.40701,0.12171 0.86502,0.3146 1.36241,0.64483 0.48803,0.32401 0.97343,0.75488 1.4086,1.28228 0.43708,0.5297 0.79858,1.12757 1.04071,1.74159 0.12742,0.36353 0.21459,0.72503 0.26282,1.08119 0.0681,0.50287 0.0708,1.00185 0.0111,1.49025 -0.10277,0.84074 -0.39051,1.64877 -0.84446,2.38211 -0.94427,1.52545 -2.55754,2.6527 -4.52618,3.10526 -0.0169,0.004 -0.0338,0.008 -0.0507,0.0115 -1.05567,0.23609 -2.17814,0.27004 -3.28949,0.11171 -1.15879,-0.16509 -2.28744,-0.53657 -3.30244,-1.08652 -0.84612,-0.45845 -1.60104,-1.03418 -2.22788,-1.70268 -0.17008,-0.18139 -0.32908,-0.36828 -0.47715,-0.55964 -0.75558,-0.97648 -1.23029,-2.07195 -1.46221,-3.20795 a 0.02632421,0.0012157 73.06479 0 0 -0.0118,-0.0332 c -0.39074,-1.39555 -0.40634,-2.75257 -0.17783,-4.05725 0.0283,-0.16166 0.0613,-0.32245 0.0987,-0.48232 0.33289,-1.423046 1.01552,-2.777275 1.87732,-4.048002 0.84917,-1.252109 1.87687,-2.430363 2.93494,-3.533785 0.10761,-0.112224 0.21551,-0.223649 0.32355,-0.33428 0.93353,-0.955945 1.88373,-1.824845 2.77001,-2.57201 1.56563,-1.317003 2.90989,-2.908398 3.97086,-4.632837 0.32003,-0.520167 0.61704,-1.07771 0.88352,-1.661977 0.52904,-1.159962 0.90784,-2.358165 1.13847,-3.5308 0.25321,-1.287415 0.30367,-2.410779 0.26974,-3.376232 -0.002,-0.326714 -0.0138,-0.632786 -0.0294,-0.916779 -0.0606,-1.103825 -0.24057,-2.18616 -0.41015,-2.950884 -0.0764,-0.344491 -0.17326,-0.730114 -0.30181,-1.157961 -0.20982,-0.698314 -0.44124,-1.454624 -0.81869,-2.458519 -0.92511,-2.460534 -2.73217,-6.152501 -3.29915,-6.769717 -0.23205,-0.252602 -0.47765,-0.271469 -0.57322,-0.326912 z"
         id="path4518"
         sodipodi:nodetypes="csscsssc"
         inkscape:path-effect="#path-effect9781"
         inkscape:original-d="m 140.4276,62.573958 c 2.33761,5.216775 5.07398,9.415491 4.59714,14.502473 -0.36616,3.906174 -3.03428,8.407415 -6.85706,11.529529 -4.31714,3.525866 -9.85451,10.283743 -7.28161,17.11162 1.67889,5.01442 7.26054,7.67214 11.78222,6.80475 4.46981,-0.85744 7.32171,-4.7741 6.29212,-9.03717 -0.73761,-3.05414 -3.3807,-6.138044 -6.63938,-5.630669 -8.43894,1.313938 -5.84251,10.931669 -1.76114,11.137309"
         inkscape:label="Clef2" />
      <path
         style="fill:#f15412;fill-opacity:1;stroke:none;stroke-width:0.15;stroke-linecap:butt;stroke-linejoin:miter;stroke-miterlimit:4;stroke-dasharray:none;stroke-opacity:1"
         d="m 125.28093,53.242268 c 1.75984,-8.774951 11.40119,-20.101336 23.98969,-17.475072 11.76249,2.453939 17.58323,16.497698 14.47675,26.226831 -0.16835,0.527261 -1.0147,0.457885 -1.46902,0.774013 -0.90638,0.630683 -1.36696,2.312892 -2.4665,2.21134 -0.92602,-0.08553 -0.77745,-2.102515 -1.70103,-2.21134 -1.52145,-0.179273 -2.04288,2.982525 -3.57216,2.891753 -1.46099,-0.08672 -1.60645,-2.992721 -3.06186,-3.146907 -1.72806,-0.18307 -2.62116,3.162731 -4.33763,2.891753 -1.71441,-0.270654 -1.51022,-3.863204 -3.23196,-4.082475 -1.30493,-0.166189 -1.83273,2.440015 -3.1469,2.381443 -2.06521,-0.09205 -2.53218,-4.001788 -4.59278,-4.167526 -1.34818,-0.108437 -2.07455,2.470272 -3.40207,2.211342 -1.45895,-0.284565 -1.09713,-3.350275 -2.55154,-3.657216 -0.90866,-0.191765 -1.48268,1.679638 -2.38145,1.445874 -1.16731,-0.303611 -1.34159,-2.02565 -1.78608,-3.146907 -0.39784,-1.003574 -0.97774,-2.088428 -0.76546,-3.146906 z"
         id="path1018"
         sodipodi:nodetypes="sssaaaaaaaaaaaaas"
         inkscape:label="Body"
         mask="none" />
    </g>
  </g>
</svg>
